<?xml version="1.0" encoding="UTF-8"?>
<svg width="100pt" height="100pt" version="1.1" viewBox="0 0 100 100" xmlns="http://www.w3.org/2000/svg">
 <g>
  <path d="m50 12.5c-15 0-27.918 7.918-35.207 19.582l10.625 6.668c2.5-3.957 6.043-7.293 10.207-9.793v-7.082c4.375-2.082 9.375-3.125 14.582-3.125s10.207 1.25 14.582 3.125v7.082c4.168 2.293 7.5 5.832 10.207 9.793l10.625-6.668c-7.7031-11.664-20.621-19.582-35.621-19.582z"/>
  <path d="m55.207 47.918c0 6.9414-10.414 6.9414-10.414 0 0-6.9453 10.414-6.9453 10.414 0"/>
  <path d="m71.875 47.918c0 6.9414-10.418 6.9414-10.418 0 0-6.9453 10.418-6.9453 10.418 0"/>
  <path d="m38.543 47.918c0 6.9414-10.418 6.9414-10.418 0 0-6.9453 10.418-6.9453 10.418 0"/>
  <path d="m55.207 64.582c0 6.9453-10.414 6.9453-10.414 0 0-6.9414 10.414-6.9414 10.414 0"/>
  <path d="m71.875 64.582c0 6.9453-10.418 6.9453-10.418 0 0-6.9414 10.418-6.9414 10.418 0"/>
  <path d="m38.543 64.582c0 6.9453-10.418 6.9453-10.418 0 0-6.9414 10.418-6.9414 10.418 0"/>
  <path d="m55.207 81.25c0 6.9453-10.414 6.9453-10.414 0s10.414-6.9453 10.414 0"/>
  <path d="m71.875 81.25c0 6.9453-10.418 6.9453-10.418 0s10.418-6.9453 10.418 0"/>
  <path d="m38.543 81.25c0 6.9453-10.418 6.9453-10.418 0s10.418-6.9453 10.418 0"/>
 </g>
</svg>
