<?xml version="1.0" encoding="UTF-8"?>
<svg width="100pt" height="100pt" version="1.1" viewBox="0 0 100 100" xmlns="http://www.w3.org/2000/svg">
 <path d="m50 16.668c-18.332 0-33.332 15-33.332 33.332s15 33.332 33.332 33.332 33.332-15 33.332-33.332-15-33.332-33.332-33.332zm24.793 30.207h-8.332c-0.41797-4.375-2.293-12.707-8.125-20.418 8.7461 3.125 15.207 11.043 16.457 20.418zm-22.711-21.25c7.293 7.5 9.582 16.668 10.207 21.25h-10.207zm-4.1641 21.25h-10.207c0.625-4.582 2.707-13.75 10.207-21.25zm0 6.25v21.25c-7.293-7.5-9.582-16.668-10.207-21.25zm4.1641 0h10.207c-0.625 4.582-2.707 13.75-10.207 21.25zm-10.414-26.668c-5.832 7.707-7.5 16.043-8.125 20.418h-8.332c1.2461-9.375 7.707-17.293 16.457-20.418zm-16.461 26.668h8.332c0.41797 4.375 2.293 12.707 8.125 20.418-8.7461-3.125-15.207-11.043-16.457-20.418zm33.125 20.418c5.832-7.707 7.5-16.043 8.125-20.418h8.332c-1.2461 9.375-7.707 17.293-16.457 20.418z"/>
</svg>
